<svg height="512pt" viewBox="0 0 512 512" width="512pt" xmlns="http://www.w3.org/2000/svg"><path d="m438.800781 91.199219c-1.800781 8.101562-15 17.699219-21.300781 21.300781-24.300781 14.398438-54 13.5-77.398438 0-24.902343-14.699219-55.003906-21.902344-84.101562-21.902344s-58.199219 7.203125-83.101562 21.902344c-24.597657 14.097656-55 13.800781-78.097657 0-7.800781-4.199219-20.101562-14.402344-21.902343-21 46.5-47.101562 112-76.5 183.101562-76.5s136.300781 29.097656 182.800781 76.199219zm0 0" fill="#e63950"/><path d="m438.800781 91.199219c-1.800781 8.101562-15 17.699219-21.300781 21.300781-24.300781 14.398438-54 13.5-77.398438 0-24.902343-14.699219-55.003906-21.902344-84.101562-21.902344v-75.597656c71.101562 0 136.300781 29.097656 182.800781 76.199219zm0 0" fill="#cc2e43"/><path d="m512 257v60c0 8.398438-6.597656 15-15 15s-15-6.601562-15-15v-60c0-124.199219-101.800781-227-226-227s-226 102.800781-226 227v60c0 8.398438-6.597656 15-15 15s-15-6.601562-15-15v-60c0-140.699219 115.300781-257 256-257s256 116.300781 256 257zm0 0" fill="#3e5959"/><path d="m512 257v60c0 8.398438-6.597656 15-15 15s-15-6.601562-15-15v-60c0-124.199219-101.800781-227-226-227v-30c140.699219 0 256 116.300781 256 257zm0 0" fill="#384949"/><path d="m392 377c0 8.398438-6.597656 15-15 15h-50.699219l-26.800781 51.597656c-2.699219 5.101563-7.800781 8.402344-13.5 8.402344s-10.800781-3.300781-13.5-8.402344l-46.5-92.996094-16.5 32.996094c-2.699219 5.101563-7.800781 8.402344-13.5 8.402344h-61c-8.402344 0-15-6.601562-15-15 0-8.402344 6.597656-15 15-15h51.699219l25.800781-51.601562c5.097656-10.199219 21.902344-10.199219 27 0l46.5 93 16.5-33c2.699219-5.097657 7.800781-8.398438 13.5-8.398438h61c8.402344 0 15 6.597656 15 15zm0 0" fill="#00eed0"/><path d="m392 377c0 8.398438-6.597656 15-15 15h-50.699219l-26.800781 51.597656c-2.699219 5.101563-7.800781 8.402344-13.5 8.402344s-10.800781-3.300781-13.5-8.402344l-16.5-32.996094v-67.203124l30 60 16.5-33c2.699219-5.097657 7.800781-8.398438 13.5-8.398438h61c8.402344 0 15 6.597656 15 15zm0 0" fill="#00ddc1"/><path d="m75 272h-30c-24.8125 0-45 20.1875-45 45v120c0 24.8125 20.1875 45 45 45h30c8.289062 0 15-6.710938 15-15v-180c0-8.289062-6.710938-15-15-15zm0 0" fill="#c6e2e7"/><path d="m467 272h-30c-8.289062 0-15 6.710938-15 15v180c0 8.289062 6.710938 15 15 15h30c24.8125 0 45-20.1875 45-45v-120c0-24.8125-20.1875-45-45-45zm0 0" fill="#a8d3d8"/><path d="m135 512h-30c-24.8125 0-45-20.1875-45-45v-180c0-24.8125 20.1875-45 45-45h30c8.289062 0 15 6.710938 15 15v240c0 8.289062-6.710938 15-15 15zm0 0" fill="#4a696f"/><path d="m407 512h-30c-8.289062 0-15-6.710938-15-15v-240c0-8.289062 6.710938-15 15-15h30c24.8125 0 45 20.1875 45 45v180c0 24.8125-20.1875 45-45 45zm0 0" fill="#3e5959"/></svg>